{
  "asset": {
    "version": "2.0",
    "generator": "THREE.GLTFExporter"
  },
  "scenes": [
    {
      "nodes": [
        1
      ],
      "name": "Scene"
    }
  ],
  "scene": 0,
  "nodes": [
    {
      "name": "SAP_Logo",
      "mesh": 0
    },
    {
      "name": "SAP_Logo.dae",
      "children": [
        0
      ]
    }
  ],
  "bufferViews": [
    {
      "buffer": 0,
      "byteOffset": 0,
      "byteLength": 35856,
      "target": 34962,
      "byteStride": 12
    },
    {
      "buffer": 0,
      "byteOffset": 35856,
      "byteLength": 71712,
      "target": 34962,
      "byteStride": 12
    }
  ],
  "buffers": [
    {
      "byteLength": 107568,
      "uri": "data:application/octet-stream;base64,"
    }
  ],
  "accessors": [
    {
      "bufferView": 0,
      "componentType": 5126,
      "count": 2988,
      "max": [
        0.11288899928331375,
        0.055907998234033585,
        0.004999999888241291
      ],
      "min": [
        0,
        0,
        -0.004999999888241291
      ],
      "type": "VEC3"
    },
    {
      "bufferView": 1,
      "componentType": 5126,
      "count": 5976,
      "max": [
        0.9999229907989502,
        1,
        1
      ],
      "min": [
        -1,
        -1,
        -1
      ],
      "type": "VEC3"
    }
  ],
  "materials": [
    {
      "pbrMetallicRoughness": {
        "baseColorFactor": [
          0.0026099,
          0.24631,
          0.525169,
          1
        ],
        "metallicFactor": 0.5,
        "roughnessFactor": 0.5
      },
      "emissiveFactor": [
        0,
        0.24313725490196078,
        0.5215686274509804
      ],
      "name": "STL_material"
    }
  ],
  "meshes": [
    {
      "primitives": [
        {
          "mode": 4,
          "attributes": {
            "POSITION": 0,
            "NORMAL": 1
          },
          "material": 0
        }
      ]
    }
  ]
}